# Blender v2.79 (sub 0) OBJ File: ''
# www.blender.org
mtllib meteor.mtl
o Cube.001
v -0.254948 -1.000000 -0.000000
v 0.512091 -0.710202 0.710202
v -0.254948 -0.750000 0.750000
v -0.810504 -0.555556 0.555555
v -1.004948 -0.750000 -0.000000
v -0.810503 -0.555556 -0.555556
v -0.254948 -0.750000 -0.750000
v 0.512091 -0.710202 -0.710202
v 0.512091 -0.946936 -0.000000
v -0.254948 1.000000 0.000000
v 0.512090 0.710202 0.710202
v 0.512091 0.946936 0.000000
v 0.512091 0.710202 -0.710202
v -0.254948 0.750000 -0.750000
v -0.810504 0.555556 -0.555556
v -1.004948 0.750000 0.000000
v -0.810504 0.555556 0.555555
v -0.254948 0.750000 0.750000
v -0.254948 -0.000000 1.000000
v 0.512090 -0.000000 0.946936
v -1.004948 -0.000000 0.750000
v -1.254948 0.000000 0.000000
v -1.004948 0.000000 -0.750000
v -0.254948 0.000000 -1.000000
v 0.512091 0.000000 -0.946936
v 0.813207 -0.590807 0.590807
v 0.813207 -0.787743 -0.000000
v 0.813207 -0.590807 -0.590807
v 0.867517 -0.471412 -0.471412
v 0.867517 -0.628550 -0.000000
v 0.867517 -0.471412 0.471413
v 1.527065 0.431614 -0.431614
v 1.058756 0.575485 0.000000
v 1.527065 0.575486 0.000000
v 1.058756 0.431614 0.431614
v 1.527065 0.431614 0.431615
v 2.055455 0.403737 0.403737
v 2.055456 0.538315 0.000001
v 2.055456 0.403737 -0.403736
v 0.813207 0.590807 0.590807
v 0.813207 -0.000000 0.787743
v 0.867517 -0.000000 0.628550
v 0.867517 0.471412 0.471413
v 0.813207 0.590807 -0.590807
v 0.813207 0.787743 0.000000
v 0.867517 0.628550 0.000000
v 0.867517 0.471412 -0.471412
v 0.813207 0.000000 -0.787742
v 0.867517 0.000000 -0.628550
v 2.400320 -0.320103 -0.320103
v 2.055456 0.000000 -0.538315
v 2.400320 0.000000 -0.426804
v 2.400320 0.320103 -0.320103
v 2.714338 0.236470 -0.236470
v 2.714338 0.000000 -0.315293
v 2.714338 -0.236470 -0.236469
v 1.058756 -0.000000 0.575486
v 1.527065 -0.000000 0.575486
v 1.527065 -0.431614 0.431614
v 2.055456 -0.403736 0.403737
v 2.055456 -0.000000 0.538316
v 1.527065 -0.431614 -0.431614
v 1.058756 0.000000 -0.575485
v 1.527065 0.000000 -0.575485
v 2.055456 -0.403736 -0.403736
v 1.058756 -0.575485 -0.000000
v 1.527065 -0.575485 -0.000000
v 2.055456 -0.538315 0.000001
v 0.894137 -0.431614 0.431614
v 0.894137 -0.575485 -0.000000
v 0.894137 -0.431614 -0.431614
v 0.894137 0.000000 -0.575485
v 0.894137 0.431614 -0.431614
v 0.894137 0.431614 0.431614
v 0.894137 -0.000000 0.575486
v 0.894137 0.575485 0.000000
v 3.150190 0.208593 -0.208592
v 2.714338 0.315294 0.000001
v 3.150190 0.278123 0.000001
v 3.150190 0.208593 0.208593
v 3.522767 0.192978 0.192978
v 3.522767 0.257304 0.000001
v 3.522767 0.192978 -0.192977
v 2.400320 -0.320103 0.320104
v 2.400320 -0.426804 0.000001
v 2.714338 -0.315293 0.000001
v 2.714338 -0.236470 0.236471
v 2.400320 0.426805 0.000001
v 2.400320 0.320103 0.320104
v 2.714338 0.236470 0.236471
v 2.400320 -0.000000 0.426805
v 2.714338 -0.000000 0.315294
v 3.646960 -0.146134 0.146135
v 3.522767 -0.257304 0.000001
v 3.646960 -0.194845 0.000001
v 3.646960 -0.146134 -0.146134
v 3.950710 -0.099290 -0.099290
v 3.950710 -0.132387 0.000001
v 3.950710 -0.099290 0.099291
v 3.150190 -0.000000 0.278124
v 3.150190 -0.208592 0.208593
v 3.522767 -0.192978 0.192978
v 3.522767 -0.000000 0.257304
v 3.150190 -0.208592 -0.208592
v 3.150190 0.000000 -0.278123
v 3.522767 0.000000 -0.257303
v 3.522767 -0.192978 -0.192977
v 3.150190 -0.278123 0.000001
v 4.861962 0.083676 -0.083676
v 3.950710 0.132388 0.000001
v 4.861962 0.111568 0.000001
v 4.861962 0.083676 0.083677
v 5.536963 0.061983 0.061983
v 5.773214 0.083676 0.000001
v 5.536963 0.061983 -0.061982
v 3.646960 0.146134 -0.146134
v 3.646960 0.194846 0.000001
v 3.646960 0.146134 0.146135
v 3.950710 0.099291 0.099291
v 3.950710 0.099291 -0.099290
v 3.646960 -0.000000 0.194846
v 3.950710 -0.000000 0.132388
v 3.646960 0.000000 -0.194845
v 3.950710 0.000000 -0.132387
v 5.773214 -0.000000 0.083677
v 6.076965 -0.000000 0.000001
v 5.773214 -0.083676 0.000001
v 5.773214 0.000000 -0.083676
v 4.861962 -0.000000 0.111569
v 4.861962 -0.083676 0.083677
v 5.536963 -0.061982 0.061983
v 4.861962 -0.083676 -0.083675
v 4.861962 0.000000 -0.111568
v 5.536963 -0.061982 -0.061982
v 4.861962 -0.111568 0.000001
v 1.058756 0.431614 -0.431614
v 1.058756 -0.431614 0.431614
v 1.058756 -0.431614 -0.431614
vt 0.205226 0.449278
vt 0.230679 0.553717
vt 0.154075 0.525699
vt 0.058101 0.491032
vt 0.129694 0.391300
vt 0.228972 0.319114
vt 0.279420 0.395967
vt 0.318623 0.457924
vt 0.265200 0.496190
vt 0.197418 0.824644
vt 0.230256 0.703482
vt 0.279708 0.784716
vt 0.346993 0.867149
vt 0.262476 0.922050
vt 0.151175 0.980519
vt 0.092706 0.869218
vt 0.048854 0.750696
vt 0.149325 0.725180
vt 0.135159 0.621599
vt 0.216472 0.624649
vt 0.034236 0.617733
vt 0.170596 0.623653
vt 0.271950 0.522299
vt 0.271950 0.623653
vt 0.271950 0.725007
vt 0.170596 0.725007
vt 0.069242 0.725008
vt 0.069242 0.623654
vt 0.069242 0.522299
vt 0.170596 0.522299
vt 0.367462 0.369398
vt 0.335889 0.275057
vt 0.446627 0.245063
vt 0.462428 0.356200
vt 0.469189 0.444185
vt 0.389534 0.444775
vt 0.268542 0.568439
vt 0.294055 0.520971
vt 0.335333 0.490090
vt 0.340798 0.507361
vt 0.307351 0.534685
vt 0.287035 0.576511
vt 0.944292 0.699587
vt 0.890807 0.785162
vt 0.880169 0.722927
vt 0.825209 0.798640
vt 0.817345 0.740844
vt 0.807235 0.672342
vt 0.864097 0.650829
vt 0.922768 0.622853
vt 0.272108 0.689422
vt 0.258566 0.626066
vt 0.281050 0.626667
vt 0.294421 0.679182
vt 0.377943 0.819384
vt 0.317150 0.754078
vt 0.332170 0.728087
vt 0.382108 0.775187
vt 0.392603 0.482224
vt 0.457868 0.485865
vt 0.437507 0.504393
vt 0.386171 0.500709
vt 0.627245 0.599380
vt 0.562341 0.606526
vt 0.589738 0.568873
vt 0.553503 0.532864
vt 0.587285 0.508700
vt 0.615638 0.537179
vt 0.645621 0.561143
vt 0.760207 0.804288
vt 0.757118 0.747915
vt 0.698904 0.744489
vt 0.703486 0.678187
vt 0.753993 0.680929
vt 0.586520 0.706596
vt 0.507686 0.729696
vt 0.531858 0.670928
vt 0.477664 0.629586
vt 0.517580 0.564684
vt 0.607844 0.642243
vt 0.632410 0.787158
vt 0.642120 0.730916
vt 0.654831 0.665711
vt 0.694796 0.820867
vt 0.628602 0.808877
vt 0.628944 0.807093
vt 0.563735 0.783456
vt 0.498614 0.752190
vt 0.499223 0.750447
vt 0.435059 0.712754
vt 0.827920 0.819106
vt 0.761236 0.826087
vt 0.761237 0.824282
vt 0.961029 0.791691
vt 0.894721 0.808900
vt 0.894500 0.807105
vt 0.831367 0.473686
vt 0.822739 0.553344
vt 0.802581 0.497968
vt 0.773674 0.517315
vt 0.761166 0.470560
vt 0.785128 0.450757
vt 0.809580 0.425599
vt 0.709352 0.628436
vt 0.667299 0.618882
vt 0.678864 0.576077
vt 0.714261 0.582616
vt 0.891106 0.573285
vt 0.844099 0.599300
vt 0.797785 0.619756
vt 0.787197 0.571833
vt 0.857805 0.530393
vt 0.752858 0.629098
vt 0.750705 0.581395
vt 0.718293 0.456415
vt 0.696855 0.476568
vt 0.702381 0.454053
vt 0.687872 0.446550
vt 0.692219 0.399611
vt 0.705209 0.404249
vt 0.719011 0.404882
vt 0.744523 0.526794
vt 0.715973 0.528103
vt 0.716610 0.480752
vt 0.738187 0.479654
vt 0.663864 0.510671
vt 0.641629 0.490655
vt 0.620777 0.466766
vt 0.647872 0.428903
vt 0.662941 0.449324
vt 0.678954 0.466345
vt 0.688866 0.522941
vt 0.761360 0.256379
vt 0.761088 0.383590
vt 0.750998 0.263626
vt 0.740227 0.269818
vt 0.731884 0.107286
vt 0.741261 0.106534
vt 0.750614 0.105702
vt 0.790233 0.408564
vt 0.771880 0.429299
vt 0.753626 0.445926
vt 0.747748 0.395111
vt 0.773952 0.369764
vt 0.735569 0.454335
vt 0.733457 0.402023
vt 0.674806 0.433209
vt 0.662462 0.416948
vt 0.668690 0.379048
vt 0.680209 0.390458
vt 0.720526 0.590357
vt 0.731834 0.601665
vt 0.720526 0.601665
vt 0.720526 0.612972
vt 0.709218 0.601665
vt 0.728635 0.273901
vt 0.716751 0.275943
vt 0.713002 0.108300
vt 0.722458 0.107876
vt 0.693597 0.273853
vt 0.682137 0.269220
vt 0.670699 0.263348
vt 0.670598 0.108748
vt 0.682327 0.108737
vt 0.693492 0.108686
vt 0.705104 0.276011
vt 0.703532 0.108555
vt 0.956703 0.767770
vt 0.695906 0.800872
vt 0.569682 0.763360
vt 0.446056 0.691099
vt 0.694631 0.822667
vt 0.563235 0.785217
vt 0.434368 0.714479
vt 0.828055 0.820907
vt 0.961312 0.793480
vt 0.731834 0.590357
vt 0.731834 0.612972
vt 0.709218 0.612972
vt 0.709218 0.590357
vn 0.0655 -0.9466 0.3155
vn -0.3482 -0.8704 0.3482
vn -0.2892 -0.8675 0.4048
vn -0.3482 -0.8704 -0.3482
vn -0.4048 -0.8675 -0.2892
vn 0.0655 -0.9466 -0.3155
vn 0.0655 0.9466 0.3155
vn 0.0655 0.9466 -0.3155
vn -0.3482 0.8704 -0.3482
vn -0.2892 0.8675 -0.4048
vn -0.3482 0.8704 0.3482
vn -0.4048 0.8675 0.2892
vn 0.0655 -0.3155 0.9466
vn 0.0655 0.3155 0.9466
vn -0.3482 0.3482 0.8704
vn -0.2892 0.4048 0.8675
vn -0.3482 -0.3482 0.8704
vn -0.4048 -0.2892 0.8675
vn -0.8704 -0.3482 0.3482
vn -0.8675 -0.4048 0.2892
vn -0.8704 0.3482 0.3482
vn -0.8675 0.2892 0.4048
vn -0.8704 0.3482 -0.3482
vn -0.8675 0.4048 -0.2892
vn -0.8704 -0.3482 -0.3482
vn -0.8675 -0.2892 -0.4048
vn -0.3482 -0.3482 -0.8704
vn -0.2892 -0.4048 -0.8675
vn -0.3482 0.3482 -0.8704
vn -0.4048 0.2892 -0.8675
vn 0.0655 0.3155 -0.9466
vn 0.0655 -0.3155 -0.9466
vn 0.4483 -0.8480 0.2827
vn 0.4483 -0.8480 -0.2827
vn 0.9410 -0.3210 -0.1070
vn 0.9410 -0.3210 0.1070
vn -0.0000 0.9487 -0.3162
vn -0.0000 0.9487 0.3162
vn 0.0666 0.9466 0.3155
vn 0.0666 0.9466 -0.3155
vn 0.4483 0.2827 0.8480
vn 0.4483 -0.2827 0.8480
vn 0.9410 -0.1070 0.3210
vn 0.9410 0.1070 0.3210
vn 0.4483 0.8480 -0.2827
vn 0.4483 0.8480 0.2827
vn 0.9410 0.3210 0.1070
vn 0.9410 0.3210 -0.1070
vn 0.4483 -0.2827 -0.8480
vn 0.4483 0.2827 -0.8480
vn 0.9410 0.1070 -0.3210
vn 0.9410 -0.1070 -0.3210
vn 0.2933 -0.3023 -0.9070
vn 0.2933 0.3023 -0.9070
vn 0.3193 0.2997 -0.8990
vn 0.3193 -0.2997 -0.8990
vn -0.0000 0.3162 0.9487
vn 0.0000 -0.3162 0.9487
vn 0.0666 -0.3155 0.9466
vn 0.0666 0.3155 0.9466
vn 0.0000 -0.3162 -0.9487
vn 0.0000 0.3162 -0.9487
vn 0.0666 0.3155 -0.9466
vn 0.0666 -0.3155 -0.9466
vn 0.0000 -0.9487 0.3162
vn 0.0000 -0.9487 -0.3162
vn 0.0666 -0.9466 -0.3155
vn 0.0666 -0.9466 0.3155
vn 0.8840 -0.4435 0.1478
vn 0.8840 -0.4435 -0.1478
vn 0.8840 -0.1478 -0.4435
vn 0.8840 0.1478 -0.4435
vn 0.8840 0.1478 0.4435
vn 0.8840 -0.1478 0.4435
vn 0.8840 0.4435 -0.1478
vn 0.8840 0.4435 0.1478
vn 0.0806 0.9456 -0.3152
vn 0.0806 0.9456 0.3152
vn 0.0529 0.9474 0.3158
vn 0.0529 0.9474 -0.3158
vn 0.2933 -0.9070 0.3023
vn 0.2933 -0.9070 -0.3023
vn 0.3193 -0.8990 -0.2997
vn 0.3193 -0.8990 0.2997
vn 0.2933 0.9070 -0.3023
vn 0.2933 0.9070 0.3023
vn 0.3193 0.8990 0.2997
vn 0.3193 0.8990 -0.2997
vn 0.2933 0.3023 0.9070
vn 0.2933 -0.3023 0.9070
vn 0.3193 -0.2997 0.8990
vn 0.3193 0.2997 0.8990
vn 0.4306 -0.8562 0.2854
vn 0.4306 -0.8562 -0.2854
vn 0.1915 -0.9311 -0.3104
vn 0.1915 -0.9311 0.3104
vn 0.0806 0.3152 0.9456
vn 0.0806 -0.3152 0.9456
vn 0.0529 -0.3158 0.9474
vn 0.0529 0.3158 0.9474
vn 0.0806 -0.3152 -0.9456
vn 0.0806 0.3152 -0.9456
vn 0.0529 0.3158 -0.9474
vn 0.0529 -0.3158 -0.9474
vn 0.0806 -0.9456 0.3152
vn 0.0806 -0.9456 -0.3152
vn 0.0529 -0.9474 -0.3158
vn 0.0529 -0.9474 0.3158
vn 0.0217 0.9485 -0.3162
vn 0.0217 0.9485 -0.3161
vn 0.0217 0.9485 0.3162
vn 0.0398 0.9456 0.3230
vn 0.0283 0.9080 0.4180
vn 0.0277 0.9058 0.4227
vn 0.0398 0.9456 -0.3230
vn 0.0283 0.9080 -0.4180
vn 0.0406 0.9479 -0.3160
vn 0.4306 0.8562 -0.2854
vn 0.4306 0.8562 0.2854
vn 0.1915 0.9311 0.3104
vn 0.1915 0.9311 -0.3104
vn 0.4306 0.2854 0.8562
vn 0.4306 -0.2854 0.8562
vn 0.1915 -0.3104 0.9311
vn 0.1915 0.3104 0.9311
vn 0.4306 -0.2854 -0.8562
vn 0.4306 0.2854 -0.8562
vn 0.1915 0.3104 -0.9311
vn 0.1915 -0.3104 -0.9311
vn 0.1563 0.6984 0.6984
vn 0.1912 0.6941 0.6941
vn 0.1563 -0.6984 0.6984
vn 0.1912 -0.6941 0.6941
vn 0.1563 -0.6984 -0.6984
vn 0.1912 -0.6941 -0.6941
vn 0.1563 0.6984 -0.6984
vn 0.1912 0.6941 -0.6941
vn 0.0217 0.3162 0.9485
vn 0.0217 -0.3162 0.9485
vn 0.0398 -0.3230 0.9456
vn 0.0283 -0.4180 0.9080
vn 0.0277 -0.4227 0.9058
vn 0.0398 0.3230 0.9456
vn 0.0283 0.4180 0.9080
vn 0.0406 0.3160 0.9479
vn 0.0217 -0.3162 -0.9485
vn 0.0217 0.3162 -0.9485
vn 0.0398 0.3230 -0.9456
vn 0.0283 0.4180 -0.9080
vn 0.0277 0.4227 -0.9058
vn 0.0398 -0.3230 -0.9456
vn 0.0283 -0.4180 -0.9080
vn 0.0406 -0.3160 -0.9479
vn 0.0217 -0.9485 0.3162
vn 0.0217 -0.9485 -0.3162
vn 0.0398 -0.9456 -0.3230
vn 0.0283 -0.9080 -0.4180
vn 0.0277 -0.9058 -0.4227
vn 0.0398 -0.9456 0.3230
vn 0.0283 -0.9080 0.4180
vn 0.0406 -0.9479 0.3160
vn -0.4048 -0.8675 0.2892
vn -0.2892 -0.8675 -0.4048
vn -0.4048 0.8675 -0.2892
vn -0.2892 0.8675 0.4048
vn -0.4048 0.2892 0.8675
vn -0.2892 -0.4048 0.8675
vn -0.8675 -0.2892 0.4048
vn -0.8675 0.4048 0.2892
vn -0.8675 0.2892 -0.4048
vn -0.8675 -0.4048 -0.2892
vn -0.4048 -0.2892 -0.8675
vn -0.2892 0.4048 -0.8675
vn 0.0406 0.9479 0.3160
vn 0.0277 0.9058 -0.4227
vn 0.1197 0.7020 0.7020
vn 0.1197 -0.7020 0.7020
vn 0.1197 -0.7020 -0.7020
vn 0.1197 0.7020 -0.7020
vn 0.0406 -0.3160 0.9479
vn 0.0277 0.4227 0.9058
vn 0.0406 0.3160 -0.9479
vn 0.0277 -0.4227 -0.9058
vn 0.0406 -0.9479 -0.3160
vn 0.0277 -0.9058 0.4227
usemtl None
s 1
f 1/1/1 2/2/1 3/3/1
f 1/1/2 4/4/2 5/5/3
f 1/1/4 6/6/4 7/7/5
f 1/1/6 8/8/6 9/9/6
f 10/10/7 11/11/7 12/12/7
f 10/10/8 13/13/8 14/14/8
f 10/10/9 15/15/9 16/16/10
f 10/10/11 17/17/11 18/18/12
f 19/19/13 2/2/13 20/20/13
f 19/19/14 11/11/14 18/18/14
f 19/19/15 17/17/15 21/21/16
f 19/19/17 4/4/17 3/3/18
f 22/22/19 4/23/19 21/24/20
f 22/22/21 17/25/21 16/26/22
f 22/22/23 15/27/23 23/28/24
f 22/22/25 6/29/25 5/30/26
f 24/31/27 6/6/27 23/32/28
f 24/31/29 15/33/29 14/34/30
f 24/31/31 13/35/31 25/36/31
f 24/31/32 8/8/32 7/7/32
f 26/37/33 9/9/33 27/38/33
f 9/9/34 28/39/34 27/38/34
f 27/38/35 29/40/35 30/41/35
f 27/38/36 31/42/36 26/37/36
f 32/43/37 33/44/37 34/45/37
f 34/45/38 35/46/38 36/47/38
f 34/45/39 37/48/39 38/49/39
f 34/45/40 39/50/40 32/43/40
f 40/51/41 20/20/41 41/52/41
f 20/20/42 26/37/42 41/52/42
f 41/52/43 31/42/43 42/53/43
f 41/52/44 43/54/44 40/51/44
f 44/55/45 12/12/45 45/56/45
f 12/12/46 40/51/46 45/56/46
f 45/56/47 43/54/47 46/57/47
f 45/56/48 47/58/48 44/55/48
f 28/39/49 25/36/49 48/59/49
f 25/36/50 44/60/50 48/59/50
f 48/59/51 47/61/51 49/62/51
f 48/59/52 29/40/52 28/39/52
f 50/63/53 51/64/53 52/65/53
f 51/64/54 53/66/54 52/65/54
f 52/65/55 54/67/55 55/68/55
f 52/65/56 56/69/56 50/63/56
f 36/47/57 57/70/57 58/71/57
f 57/70/58 59/72/58 58/71/58
f 58/71/59 60/73/59 61/74/59
f 58/71/60 37/48/60 36/47/60
f 62/75/61 63/76/61 64/77/61
f 63/76/62 32/78/62 64/77/62
f 64/77/63 39/79/63 51/64/63
f 64/77/64 65/80/64 62/75/64
f 59/72/65 66/81/65 67/82/65
f 66/81/66 62/75/66 67/82/66
f 67/82/67 65/80/67 68/83/67
f 67/82/68 60/73/68 59/72/68
f 69/84/69 30/85/69 70/86/69
f 30/85/70 71/87/70 70/86/70
f 71/87/66 66/81/66 70/86/66
f 66/81/65 69/84/65 70/86/65
f 71/87/71 49/88/71 72/89/71
f 49/88/72 73/90/72 72/89/72
f 73/90/62 63/76/62 72/89/62
f 63/76/61 71/87/61 72/89/61
f 74/91/73 42/92/73 75/93/73
f 42/92/74 69/84/74 75/93/74
f 69/84/58 57/70/58 75/93/58
f 57/70/57 74/91/57 75/93/57
f 73/94/75 46/95/75 76/96/75
f 46/95/76 74/91/76 76/96/76
f 74/91/38 33/44/38 76/96/38
f 33/44/37 73/94/37 76/96/37
f 77/97/77 78/98/77 79/99/77
f 78/98/78 80/100/78 79/99/78
f 79/99/79 81/101/79 82/102/79
f 79/99/80 83/103/80 77/97/80
f 84/104/81 68/83/81 85/105/81
f 68/83/82 50/63/82 85/105/82
f 85/105/83 56/69/83 86/106/83
f 85/105/84 87/107/84 84/104/84
f 53/108/85 38/49/85 88/109/85
f 38/49/86 89/110/86 88/109/86
f 88/109/87 90/111/87 78/98/87
f 88/109/88 54/112/88 53/108/88
f 89/110/89 61/74/89 91/113/89
f 61/74/90 84/104/90 91/113/90
f 91/113/91 87/107/91 92/114/91
f 91/113/92 90/111/92 89/110/92
f 93/115/93 94/116/93 95/117/93
f 94/116/94 96/118/94 95/117/94
f 95/117/95 97/119/95 98/120/95
f 95/117/96 99/121/96 93/115/96
f 80/100/97 92/114/97 100/122/97
f 92/114/98 101/123/98 100/122/98
f 100/122/99 102/124/99 103/125/99
f 100/122/100 81/101/100 80/100/100
f 104/126/101 55/68/101 105/127/101
f 55/68/102 77/128/102 105/127/102
f 105/127/103 83/129/103 106/130/103
f 105/127/104 107/131/104 104/126/104
f 101/123/105 86/106/105 108/132/105
f 86/106/106 104/126/106 108/132/106
f 108/132/107 107/131/107 94/116/107
f 108/132/108 102/124/108 101/123/108
f 109/133/109 110/134/109 111/135/110
f 110/134/111 112/136/111 111/135/111
f 111/135/112 113/137/113 114/138/114
f 111/135/115 115/139/116 109/133/117
f 116/140/118 82/102/118 117/141/118
f 82/102/119 118/142/119 117/141/119
f 117/141/120 119/143/120 110/134/120
f 117/141/121 120/144/121 116/140/121
f 118/142/122 103/125/122 121/145/122
f 103/125/123 93/115/123 121/145/123
f 121/145/124 99/121/124 122/146/124
f 121/145/125 119/143/125 118/142/125
f 96/118/126 106/130/126 123/147/126
f 106/130/127 116/148/127 123/147/127
f 123/147/128 120/149/128 124/150/128
f 123/147/129 97/119/129 96/118/129
f 114/151/130 125/152/130 126/153/131
f 125/152/132 127/154/132 126/153/133
f 127/154/134 128/155/134 126/153/135
f 128/155/136 114/151/136 126/153/137
f 112/136/138 122/146/138 129/156/138
f 122/146/139 130/157/139 129/156/139
f 129/156/140 131/158/141 125/159/142
f 129/156/143 113/137/144 112/136/145
f 132/160/146 124/150/146 133/161/146
f 124/150/147 109/162/147 133/161/147
f 133/161/148 115/163/149 128/164/150
f 133/161/151 134/165/152 132/160/153
f 130/157/154 98/120/154 135/166/154
f 98/120/155 132/160/155 135/166/155
f 135/166/156 134/165/157 127/167/158
f 135/166/159 131/158/160 130/157/161
f 1/1/1 9/9/1 2/2/1
f 1/1/2 3/3/162 4/4/2
f 1/1/4 5/5/163 6/6/4
f 1/1/6 7/7/6 8/8/6
f 10/10/7 18/18/7 11/11/7
f 10/10/8 12/12/8 13/13/8
f 10/10/9 14/14/164 15/15/9
f 10/10/11 16/16/165 17/17/11
f 19/19/13 3/3/13 2/2/13
f 19/19/14 20/20/14 11/11/14
f 19/19/15 18/18/166 17/17/15
f 19/19/17 21/21/167 4/4/17
f 22/22/19 5/30/168 4/23/19
f 22/22/21 21/24/169 17/25/21
f 22/22/23 16/26/170 15/27/23
f 22/22/25 23/28/171 6/29/25
f 24/31/27 7/7/172 6/6/27
f 24/31/29 23/32/173 15/33/29
f 24/31/31 14/34/31 13/35/31
f 24/31/32 25/36/32 8/8/32
f 26/37/33 2/2/33 9/9/33
f 9/9/34 8/8/34 28/39/34
f 27/38/35 28/39/35 29/40/35
f 27/38/36 30/41/36 31/42/36
f 32/43/37 136/168/37 33/44/37
f 34/45/38 33/44/38 35/46/38
f 34/45/39 36/47/39 37/48/39
f 34/45/40 38/49/40 39/50/40
f 40/51/41 11/11/41 20/20/41
f 20/20/42 2/2/42 26/37/42
f 41/52/43 26/37/43 31/42/43
f 41/52/44 42/53/44 43/54/44
f 44/55/45 13/13/45 12/12/45
f 12/12/46 11/11/46 40/51/46
f 45/56/47 40/51/47 43/54/47
f 45/56/48 46/57/48 47/58/48
f 28/39/49 8/8/49 25/36/49
f 25/36/50 13/35/50 44/60/50
f 48/59/51 44/60/51 47/61/51
f 48/59/52 49/62/52 29/40/52
f 50/63/53 65/80/53 51/64/53
f 51/64/54 39/79/54 53/66/54
f 52/65/55 53/66/55 54/67/55
f 52/65/56 55/68/56 56/69/56
f 36/47/57 35/46/57 57/70/57
f 57/70/58 137/169/58 59/72/58
f 58/71/59 59/72/59 60/73/59
f 58/71/60 61/74/60 37/48/60
f 62/75/61 138/170/61 63/76/61
f 63/76/62 136/171/62 32/78/62
f 64/77/63 32/78/63 39/79/63
f 64/77/64 51/64/64 65/80/64
f 59/72/65 137/169/65 66/81/65
f 66/81/66 138/170/66 62/75/66
f 67/82/67 62/75/67 65/80/67
f 67/82/68 68/83/68 60/73/68
f 69/84/69 31/172/69 30/85/69
f 30/85/70 29/173/70 71/87/70
f 71/87/66 138/170/66 66/81/66
f 66/81/65 137/169/65 69/84/65
f 71/87/71 29/173/71 49/88/71
f 49/88/72 47/174/72 73/90/72
f 73/90/62 136/171/62 63/76/62
f 63/76/61 138/170/61 71/87/61
f 74/91/73 43/175/73 42/92/73
f 42/92/74 31/172/74 69/84/74
f 69/84/58 137/169/58 57/70/58
f 57/70/57 35/46/57 74/91/57
f 73/94/75 47/176/75 46/95/75
f 46/95/76 43/175/76 74/91/76
f 74/91/38 35/46/38 33/44/38
f 33/44/37 136/168/37 73/94/37
f 77/97/77 54/112/77 78/98/77
f 78/98/78 90/111/78 80/100/78
f 79/99/79 80/100/79 81/101/79
f 79/99/80 82/102/80 83/103/80
f 84/104/81 60/73/81 68/83/81
f 68/83/82 65/80/82 50/63/82
f 85/105/83 50/63/83 56/69/83
f 85/105/84 86/106/84 87/107/84
f 53/108/85 39/50/85 38/49/85
f 38/49/86 37/48/86 89/110/86
f 88/109/87 89/110/87 90/111/87
f 88/109/88 78/98/88 54/112/88
f 89/110/89 37/48/89 61/74/89
f 61/74/90 60/73/90 84/104/90
f 91/113/91 84/104/91 87/107/91
f 91/113/92 92/114/92 90/111/92
f 93/115/93 102/124/93 94/116/93
f 94/116/94 107/131/94 96/118/94
f 95/117/95 96/118/95 97/119/95
f 95/117/96 98/120/96 99/121/96
f 80/100/97 90/111/97 92/114/97
f 92/114/98 87/107/98 101/123/98
f 100/122/99 101/123/99 102/124/99
f 100/122/100 103/125/100 81/101/100
f 104/126/101 56/69/101 55/68/101
f 55/68/102 54/67/102 77/128/102
f 105/127/103 77/128/103 83/129/103
f 105/127/104 106/130/104 107/131/104
f 101/123/105 87/107/105 86/106/105
f 86/106/106 56/69/106 104/126/106
f 108/132/107 104/126/107 107/131/107
f 108/132/108 94/116/108 102/124/108
f 109/133/109 120/144/109 110/134/109
f 110/134/111 119/143/111 112/136/111
f 111/135/112 112/136/174 113/137/113
f 111/135/115 114/138/175 115/139/116
f 116/140/118 83/103/118 82/102/118
f 82/102/119 81/101/119 118/142/119
f 117/141/120 118/142/120 119/143/120
f 117/141/121 110/134/121 120/144/121
f 118/142/122 81/101/122 103/125/122
f 103/125/123 102/124/123 93/115/123
f 121/145/124 93/115/124 99/121/124
f 121/145/125 122/146/125 119/143/125
f 96/118/126 107/131/126 106/130/126
f 106/130/127 83/129/127 116/148/127
f 123/147/128 116/148/128 120/149/128
f 123/147/129 124/150/129 97/119/129
f 114/151/130 113/177/176 125/152/130
f 125/152/132 131/178/177 127/154/132
f 127/154/134 134/179/178 128/155/134
f 128/155/136 115/180/179 114/151/136
f 112/136/138 119/143/138 122/146/138
f 122/146/139 99/121/139 130/157/139
f 129/156/140 130/157/180 131/158/141
f 129/156/143 125/159/181 113/137/144
f 132/160/146 97/119/146 124/150/146
f 124/150/147 120/149/147 109/162/147
f 133/161/148 109/162/182 115/163/149
f 133/161/151 128/164/183 134/165/152
f 130/157/154 99/121/154 98/120/154
f 98/120/155 97/119/155 132/160/155
f 135/166/156 132/160/184 134/165/157
f 135/166/159 127/167/185 131/158/160
